<svg width="48" height="48" viewBox="0 0 48 48" fill="none" xmlns="http://www.w3.org/2000/svg">
<rect width="48" height="48" rx="7" fill="#D9D9D9"/>
<path fill-rule="evenodd" clip-rule="evenodd" d="M17.0971 30.9361H13.8585V34.1748H17.0971V30.9361ZM9.00049 26.0781V39.0327H21.9551V26.0781H9.00049Z" fill="black"/>
<path d="M26.0457 26.0781H31.5002V39.0327H26.0457V26.0781Z" fill="black"/>
<path d="M26.0457 31.5332L26.0457 26.0786L39.0003 26.0786L39.0003 31.5332L26.0457 31.5332Z" fill="black"/>
<path d="M26.0095 9H30.8789V21.985H26.0095V9Z" fill="black"/>
<path d="M34.1252 9H38.9946V21.985H34.1252V9Z" fill="black"/>
<path d="M26.0095 13.0581L26.0095 9.0003L38.9945 9.0003L38.9945 13.0581L26.0095 13.0581Z" fill="black"/>
<path d="M26.8213 19.5498L26.8213 15.492L38.9947 15.492L38.9947 19.5498L26.8213 19.5498Z" fill="black"/>
<path d="M21.9546 18.5786L17.1818 18.5786L17.1818 9.03311L21.9546 9.03311L21.9546 18.5786Z" fill="black"/>
<path d="M13.7727 21.9873L8.99995 21.9873L8.99995 9.03269L13.7727 9.03269L13.7727 21.9873Z" fill="black"/>
<path d="M21.9546 17.2148L21.9546 21.9876L12.4091 21.9876L12.4091 17.2148L21.9546 17.2148Z" fill="black"/>
</svg>
