<svg width="155" height="155" viewBox="0 0 155 155" fill="none" xmlns="http://www.w3.org/2000/svg">
<path d="M59.2058 0.650879C38.0991 2.14034 25.239 6.53603 15.939 15.4001C6.56631 24.3368 1.91631 37.7419 0.354199 60.1927C-0.118066 66.986 -0.118066 88.2743 0.354199 95.0677C1.91631 117.373 6.31201 130.161 15.5757 139.424C24.8757 148.724 37.8448 153.156 60.114 154.646C67.1253 155.118 87.578 155.118 94.6257 154.646C117.076 153.156 130.627 148.434 139.6 139.061C148.646 129.579 152.932 116.792 154.385 94.886C154.858 87.8747 154.858 67.3856 154.385 60.3743C152.932 38.4685 148.646 25.681 139.6 16.1993C130.663 6.82666 117.258 2.17665 94.8073 0.614548C88.7042 0.214935 65.3452 0.214935 59.2058 0.650879Z" fill="#C7FF27"/>
<path d="M54 42C54 47.8348 56.3705 53.4306 60.5901 57.5564C64.8097 61.6822 70.5326 64 76.5 64C82.4674 64 88.1903 61.6822 92.4099 57.5564C96.6295 53.4306 99 47.8348 99 42" stroke="black" stroke-width="8" stroke-linecap="round" stroke-linejoin="round"/>
</svg>
