<svg width="48" height="48" viewBox="0 0 48 48" fill="none" xmlns="http://www.w3.org/2000/svg">
<g clip-path="url(#clip0_572_125)">
<path d="M18.3347 0.201337C11.7984 0.662589 7.81595 2.02383 4.93595 4.76884C2.03344 7.53633 0.593438 11.6876 0.109687 18.6401C-0.0365625 20.7438 -0.0365625 27.3363 0.109687 29.4401C0.593438 36.3475 1.95469 40.3077 4.82344 43.1762C7.70344 46.0562 11.7197 47.4287 18.6159 47.8902C20.7872 48.0363 27.1209 48.0363 29.3034 47.8902C36.2558 47.4287 40.4522 45.9664 43.231 43.0638C46.0323 40.1275 47.3596 36.1676 47.8095 29.3838C47.956 27.2126 47.956 20.8676 47.8095 18.6963C47.3596 11.9126 46.0323 7.9526 43.231 5.01633C40.4634 2.11384 36.3122 0.673833 29.3597 0.190086C27.4697 0.0663345 20.2359 0.0663346 18.3347 0.201337Z" fill="#D9D9D9"/>
<path d="M16.7227 13.0063C16.7227 14.8133 17.4567 16.5461 18.7635 17.8238C20.0702 19.1015 21.8424 19.8193 23.6904 19.8193C25.5384 19.8193 27.3106 19.1015 28.6173 17.8238C29.9241 16.5461 30.6581 14.8133 30.6581 13.0063" stroke="black" stroke-width="8" stroke-linecap="round" stroke-linejoin="round"/>
</g>
<defs>
<clipPath id="clip0_572_125">
<rect width="48" height="48" fill="white"/>
</clipPath>
</defs>
</svg>
